<svg width="130" height="79" viewBox="0 0 130 79" fill="none" xmlns="http://www.w3.org/2000/svg">
<g clip-path="url(#clip0)">
<path d="M64.2542 79.0003C63.8251 79.0003 63.399 78.8886 63.0228 78.6737L59.1035 76.3713C58.5181 76.0465 58.8037 75.9316 58.9968 75.8654C59.7773 75.5942 59.9357 75.533 60.7689 75.0635C60.8564 75.014 60.971 75.0315 61.0607 75.084L64.0717 76.8568C64.1804 76.9151 64.3347 76.9151 64.4355 76.8568L76.1756 70.1328C76.2844 70.0715 76.3549 69.9462 76.3549 69.8179V56.3756C76.3549 56.2415 76.2844 56.1219 76.1733 56.0548L64.4378 49.3366C64.3291 49.2725 64.1851 49.2725 64.0764 49.3366L52.3433 56.0548C52.2296 56.119 52.1573 56.2444 52.1573 56.3727V69.8149C52.1573 69.9432 52.2278 70.0657 52.3395 70.1269L55.5544 71.9698C57.3 72.8358 58.3668 71.8152 58.3668 70.7888V57.5215C58.3668 57.332 58.5166 57.1862 58.7076 57.1862H60.1946C60.3798 57.1862 60.5326 57.332 60.5326 57.5215V70.7947C60.5326 73.1041 59.2631 74.4308 57.0561 74.4308C56.3773 74.4308 55.8424 74.4308 54.3495 73.7018L51.2698 71.9406C50.5086 71.5032 50.0385 70.6868 50.0385 69.8149V56.3727C50.0385 55.4979 50.5086 54.6815 51.2698 54.2499L63.0217 47.5229C63.7652 47.106 64.7526 47.106 65.4902 47.5229L77.2274 54.2528C77.9856 54.6873 78.4587 55.5008 78.4587 56.3756V69.8179C78.4587 70.6897 77.9856 71.5032 77.2274 71.9406L65.4902 78.6676C65.114 78.8834 64.6879 78.9942 64.253 78.9942" fill="#689F63"/>
<path d="M67.8805 69.7376C62.7437 69.7376 61.6666 67.3979 61.6666 65.4355C61.6666 65.2489 61.8183 65.1002 62.0066 65.1002H63.523C63.6905 65.1002 63.8316 65.2212 63.858 65.3854C64.0872 66.9186 64.769 67.6919 67.8752 67.6919C70.3496 67.6919 71.4017 67.1373 71.4017 65.8353C71.4017 65.0859 71.1019 64.529 67.2581 64.1558C64.0432 63.8408 62.0566 63.1381 62.0566 60.5867C62.0566 58.2365 64.0549 56.8369 67.4021 56.8369C71.1607 56.8369 73.0239 58.1315 73.259 60.9133C73.2678 61.0095 73.2325 61.1028 73.1679 61.1728C73.1032 61.2399 73.0121 61.2807 72.9181 61.2807H71.3929C71.2342 61.2807 71.0961 61.1699 71.0637 61.0183C70.6964 59.4058 69.8089 58.8897 67.3962 58.8897C64.6956 58.8897 64.3811 59.8227 64.3811 60.5226C64.3811 61.3711 64.7514 61.6189 68.3954 62.0971C72.0041 62.5724 73.7174 63.2431 73.7174 65.7595C73.7174 68.2963 71.5839 69.7514 67.8635 69.7514L67.8805 69.7376ZM82.1632 55.4956H82.557C82.8803 55.4956 82.942 55.271 82.942 55.1398C82.942 54.7957 82.704 54.7957 82.5717 54.7957H82.1662L82.1632 55.4956ZM81.6842 54.3933H82.557C82.8568 54.3933 83.4445 54.3933 83.4445 55.0582C83.4445 55.5218 83.1448 55.618 82.9655 55.6763C83.3152 55.6997 83.3387 55.9271 83.3857 56.2479C83.4093 56.4491 83.4475 56.796 83.518 56.9127H82.9802C82.9655 56.796 82.8832 56.1545 82.8832 56.1196C82.848 55.9767 82.798 55.9067 82.6187 55.9067H82.175V56.9156H81.6842V54.3933ZM80.6351 55.6472C80.6351 56.6911 81.4844 57.5367 82.5276 57.5367C83.5797 57.5367 84.429 56.6736 84.429 55.6472C84.429 54.6004 83.5679 53.7693 82.5247 53.7693C81.4962 53.7693 80.6322 54.5887 80.6322 55.6443L80.6351 55.6472ZM84.7934 55.653C84.7934 56.8893 83.7737 57.8983 82.5306 57.8983C81.2963 57.8983 80.2678 56.901 80.2678 55.653C80.2678 54.3817 81.3198 53.4078 82.5306 53.4078C83.7501 53.4078 84.7904 54.3846 84.7904 55.653" fill="#689F63"/>
<path fill-rule="evenodd" clip-rule="evenodd" d="M27.8989 26.4036C27.8989 25.867 27.6139 25.3743 27.1472 25.1074L14.7 18.0014C14.4899 17.8789 14.2545 17.8148 14.0159 17.806H13.8872C13.6485 17.8148 13.4132 17.8789 13.1995 18.0014L0.752897 25.1074C0.289169 25.3757 0 25.8685 0 26.405L0.02733 45.5449C0.02733 45.8103 0.165449 46.0581 0.400546 46.1894C0.629765 46.3293 0.917759 46.3293 1.14698 46.1894L8.54665 41.9846C9.0139 41.7088 9.29896 41.2213 9.29896 40.69V31.7484C9.29896 31.2148 9.58401 30.722 10.0498 30.4567L13.2001 28.6564C13.434 28.5222 13.6909 28.4558 13.9524 28.4558C14.2098 28.4558 14.4726 28.5217 14.7 28.6561L17.8488 30.4558C18.3149 30.7211 18.6011 31.2139 18.6011 31.7475V40.6885C18.6011 41.2192 18.89 41.7091 19.3549 41.9832L26.7499 46.185C26.9821 46.322 27.2709 46.322 27.5022 46.185C27.7302 46.0538 27.8748 45.8059 27.8748 45.5406L27.8989 26.4036ZM86.6343 36.3689C86.6343 36.5022 86.5629 36.6255 86.4463 36.6914L82.171 39.1367C82.0549 39.2029 81.9115 39.2029 81.7957 39.1367L77.5199 36.6914C77.4024 36.6252 77.3318 36.5019 77.3318 36.3689V31.4714C77.3318 31.3378 77.4024 31.2148 77.517 31.1477L81.7899 28.6984C81.9074 28.6313 82.0514 28.6313 82.169 28.6984L86.4448 31.1477C86.5623 31.2148 86.6329 31.3378 86.6329 31.4714L86.6343 36.3689ZM87.7892 0.0946255C87.5559 -0.034257 87.272 -0.0307579 87.0416 0.102498C86.8124 0.236629 86.6708 0.481564 86.6708 0.746911V19.7002C86.6708 19.8868 86.5708 20.0589 86.408 20.1522C86.2464 20.2455 86.0451 20.2455 85.882 20.1522L82.764 18.3703C82.2997 18.1038 81.7279 18.1038 81.2618 18.3703L68.8105 25.5005C68.3453 25.7659 68.0582 26.2586 68.0582 26.7893V41.0539C68.0582 41.5875 68.3453 42.0774 68.8105 42.3456L81.2618 49.4808C81.7267 49.7462 82.2991 49.7462 82.7655 49.4808L95.2168 42.3427C95.6811 42.0744 95.9691 41.5846 95.9691 41.051V5.5004C95.9691 4.95921 95.6723 4.46147 95.1963 4.197L87.7892 0.0946255ZM129.252 31.3425C129.715 31.076 130 30.5838 130 30.0531V26.596C130 26.0642 129.715 25.5734 129.251 25.3057L116.879 18.1793C116.412 17.911 115.839 17.911 115.372 18.1793L102.923 25.3086C102.456 25.5769 102.171 26.0668 102.171 26.6004V40.8591C102.171 41.3956 102.462 41.8913 102.929 42.1567L115.298 49.1519C115.754 49.4114 116.312 49.4143 116.773 49.1606L124.255 45.0347C124.49 44.9034 124.64 44.6556 124.64 44.3873C124.64 44.1191 124.496 43.8683 124.261 43.7371L111.736 36.6048C111.501 36.4736 111.357 36.2257 111.357 35.9604V31.4874C111.357 31.2203 111.498 30.9742 111.734 30.8413L115.63 28.6106C115.862 28.4765 116.147 28.4765 116.38 28.6106L120.279 30.8413C120.511 30.9725 120.655 31.2203 120.655 31.4857V35.0022C120.655 35.2676 120.799 35.5154 121.032 35.6496C121.264 35.7808 121.552 35.7808 121.784 35.6467L129.252 31.3425Z" fill="#333333"/>
<path fill-rule="evenodd" clip-rule="evenodd" d="M115.943 30.6752C116.032 30.6236 116.142 30.6236 116.231 30.6752L118.621 32.0427C118.71 32.0941 118.765 32.1885 118.765 32.2906V35.0286C118.765 35.1307 118.71 35.2251 118.621 35.2765L116.231 36.644C116.142 36.6956 116.032 36.6956 115.943 36.644L113.556 35.2765C113.465 35.2251 113.409 35.1307 113.409 35.0286V32.2906C113.409 32.1885 113.462 32.0941 113.553 32.0427L115.943 30.6752Z" fill="#689F63"/>
<g clip-path="url(#clip1)">
<path fill-rule="evenodd" clip-rule="evenodd" d="M47.4385 19.0475C47.877 18.7894 48.4265 18.7894 48.8709 19.0475L60.7538 25.8852C61.1982 26.1418 61.4701 26.6142 61.4701 27.1245V40.8146C61.4701 41.3248 61.1982 41.7973 60.7538 42.0539L48.8709 48.8917C48.4265 49.1497 47.877 49.1497 47.4385 48.8917L35.5628 42.0539C35.1097 41.7973 34.832 41.3248 34.832 40.8146V27.1245C34.832 26.6142 35.0952 26.1418 35.5483 25.8852L47.4385 19.0475Z" fill="#689F63"/>
</g>
</g>
<defs>
<clipPath id="clip0">
<rect width="130" height="79" fill="white"/>
</clipPath>
<clipPath id="clip1">
<rect width="27.1492" height="31.3718" fill="white" transform="translate(34.4752 18.2527)"/>
</clipPath>
</defs>
</svg>
